<?xml version="1.0" encoding="utf-8"?>
<!-- Generator: Adobe Illustrator 23.0.4, SVG Export Plug-In . SVG Version: 6.00 Build 0)  -->
<svg version="1.1" id="Layer_1" xmlns="http://www.w3.org/2000/svg" xmlns:xlink="http://www.w3.org/1999/xlink" x="0px" y="0px"
	 viewBox="0 0 32 32" style="enable-background:new 0 0 32 32;" xml:space="preserve">
<style type="text/css">
	.st0{fill:#008AD0;}
	.st1{fill:#333333;}
</style>
<g>
	<g>
		<path class="st1" d="M1.5,11.651c-0.25,0-0.5-0.093-0.694-0.28c-0.397-0.384-0.409-1.017-0.025-1.414
			c4.085-4.233,9.563-6.565,15.428-6.565c5.633,0,10.957,2.176,14.991,6.126c0.395,0.387,0.401,1.02,0.016,1.414
			c-0.387,0.396-1.02,0.402-1.414,0.016c-3.659-3.583-8.486-5.556-13.593-5.556c-5.316,0-10.284,2.114-13.988,5.954
			C2.023,11.549,1.762,11.651,1.5,11.651z"/>
	</g>
	<g>
		<path class="st1" d="M5.587,15.703c-0.25,0-0.5-0.093-0.694-0.28c-0.397-0.384-0.409-1.017-0.025-1.414
			c2.971-3.08,6.958-4.776,11.226-4.776c4.161,0,8.078,1.624,11.027,4.574c0.391,0.391,0.391,1.023,0,1.414s-1.023,0.391-1.414,0
			c-2.572-2.572-5.986-3.988-9.613-3.988c-3.72,0-7.195,1.479-9.786,4.165C6.11,15.601,5.849,15.703,5.587,15.703z"/>
	</g>
	<g>
		<path class="st1" d="M9.752,19.756c-0.25,0-0.5-0.093-0.694-0.28c-0.397-0.384-0.409-1.017-0.025-1.414
			c1.858-1.927,4.354-2.988,7.023-2.988c2.603,0,5.053,1.016,6.899,2.861c0.391,0.39,0.391,1.023,0,1.414s-1.023,0.391-1.414,0
			c-1.468-1.467-3.416-2.275-5.485-2.275c-2.122,0-4.105,0.844-5.584,2.377C10.275,19.653,10.014,19.756,9.752,19.756z"/>
	</g>
	<g>
		<path class="st0" d="M16,29c-2.206,0-4-1.794-4-4s1.794-4,4-4s4,1.794,4,4S18.206,29,16,29z M16,23c-1.103,0-2,0.897-2,2
			s0.897,2,2,2s2-0.897,2-2S17.103,23,16,23z"/>
	</g>
</g>
</svg>
