<?xml version="1.0" encoding="utf-8"?>
<!-- Generator: Adobe Illustrator 23.0.4, SVG Export Plug-In . SVG Version: 6.00 Build 0)  -->
<svg version="1.1" id="Layer_1" xmlns="http://www.w3.org/2000/svg" xmlns:xlink="http://www.w3.org/1999/xlink" x="0px" y="0px"
	 viewBox="0 0 32 32" style="enable-background:new 0 0 32 32;" xml:space="preserve">
<style type="text/css">
	.st0{fill:#008AD0;}
	.st1{fill:#333333;}
</style>
<g>
	<g>
		<path class="st0" d="M9.166,21.5c-0.07,0-0.143-0.007-0.215-0.023c-0.539-0.118-0.881-0.651-0.763-1.19
			C8.984,16.644,12.27,14,16,14c2.824,0,5.469,1.516,6.899,3.956c0.279,0.477,0.12,1.089-0.356,1.369
			c-0.476,0.279-1.09,0.12-1.368-0.357C20.101,17.137,18.118,16,16,16c-2.797,0-5.261,1.982-5.858,4.713
			C10.04,21.181,9.626,21.5,9.166,21.5z"/>
	</g>
	<g>
		<path class="st0" d="M16,30c-2.884,0-5.555-1.563-6.971-4.081c-0.271-0.481-0.101-1.091,0.381-1.362
			c0.481-0.27,1.091-0.101,1.361,0.381C11.835,26.827,13.838,28,16,28c2.797,0,5.261-1.982,5.858-4.713
			c0.117-0.54,0.646-0.883,1.19-0.764c0.539,0.118,0.881,0.651,0.763,1.19C23.016,27.356,19.73,30,16,30z"/>
	</g>
</g>
<g>
	<path class="st0" d="M9,29c-0.553,0-1-0.448-1-1v-3c0-0.552,0.447-1,1-1h3c0.553,0,1,0.448,1,1s-0.447,1-1,1h-2v2
		C10,28.552,9.553,29,9,29z"/>
</g>
<g>
	<path class="st0" d="M23,20h-3c-0.553,0-1-0.448-1-1s0.447-1,1-1h2v-2c0-0.552,0.447-1,1-1s1,0.448,1,1v3
		C24,19.552,23.553,20,23,20z"/>
</g>
<g>
	<path class="st1" d="M26.889,25.261c-0.353,0-0.695-0.187-0.877-0.518c-0.267-0.484-0.09-1.092,0.395-1.358
		C28.006,22.504,29,20.824,29,19c0-1.506-0.671-2.918-1.841-3.874c-0.309-0.252-0.438-0.663-0.33-1.046
		C26.946,13.668,27,13.325,27,13c0-2.206-1.794-4-4-4c-0.216,0-0.445,0.023-0.722,0.074c-0.445,0.083-0.886-0.143-1.081-0.548
		C19.847,5.734,17.089,4,14,4c-4.411,0-8,3.589-8,8l0.013,0.227c0.008,0.336-0.153,0.653-0.43,0.845C3.966,14.196,3,16.038,3,18
		c0,1.982,0.979,3.835,2.617,4.957c0.456,0.312,0.572,0.934,0.261,1.39c-0.312,0.455-0.933,0.574-1.39,0.261
		C2.304,23.113,1,20.643,1,18c0-2.434,1.113-4.729,3.003-6.243C4.132,6.355,8.567,2,14,2c3.619,0,6.874,1.903,8.658,5.012
		C22.774,7.004,22.889,7,23,7c3.309,0,6,2.691,6,6c0,0.327-0.031,0.655-0.098,1.004C30.242,15.317,31,17.105,31,19
		c0,2.554-1.391,4.905-3.631,6.137C27.217,25.221,27.052,25.261,26.889,25.261z"/>
</g>
<g>
	<path class="st1" d="M2,19c-0.553,0-1-0.448-1-1c0-4.411,3.589-8,8-8c0.553,0,1,0.448,1,1s-0.447,1-1,1c-3.309,0-6,2.691-6,6
		C3,18.552,2.553,19,2,19z"/>
</g>
<g>
	<path class="st1" d="M23,13c-0.553,0-1-0.448-1-1c0-4.411-3.589-8-8-8c-0.553,0-1-0.448-1-1s0.447-1,1-1c5.514,0,10,4.486,10,10
		C24,12.552,23.553,13,23,13z"/>
</g>
</svg>
