<?xml version="1.0" encoding="utf-8"?>
<!-- Generator: Adobe Illustrator 23.0.4, SVG Export Plug-In . SVG Version: 6.00 Build 0)  -->
<svg version="1.1" id="Layer_1" xmlns="http://www.w3.org/2000/svg" xmlns:xlink="http://www.w3.org/1999/xlink" x="0px" y="0px"
	 viewBox="0 0 32 32" style="enable-background:new 0 0 32 32;" xml:space="preserve">
<style type="text/css">
	.st0{fill:#008AD0;}
	.st1{fill:#333333;}
</style>
<g>
	<path class="st0" d="M30,24c-0.134,0-0.268-0.026-0.394-0.081l-7-3C22.238,20.762,22,20.4,22,20v-5c0-0.4,0.238-0.762,0.606-0.919
		l7-3c0.31-0.134,0.665-0.102,0.944,0.084C30.831,11.351,31,11.664,31,12v11c0,0.336-0.169,0.649-0.45,0.835
		C30.385,23.944,30.193,24,30,24z M24,19.341l5,2.143v-7.967l-5,2.143V19.341z"/>
</g>
<g>
	<path class="st1" d="M21,27H4c-1.654,0-3-1.346-3-3V10c0-1.654,1.346-3,3-3h3.93c1.005,0,1.938,0.499,2.496,1.336L11.535,10H21
		c1.654,0,3,1.346,3,3v11C24,25.654,22.654,27,21,27z M4,9c-0.551,0-1,0.448-1,1v14c0,0.552,0.449,1,1,1h17c0.551,0,1-0.448,1-1V13
		c0-0.552-0.449-1-1-1H11c-0.334,0-0.646-0.167-0.832-0.445L8.762,9.445C8.576,9.166,8.265,9,7.93,9H4z"/>
</g>
<g>
	<path class="st1" d="M11,12c-0.124,0-0.249-0.022-0.371-0.071c-0.513-0.205-0.762-0.787-0.557-1.3l1.497-3.743
		C12.027,5.74,13.121,5,14.354,5H21c0.552,0,1,0.447,1,1s-0.448,1-1,1h-6.646c-0.411,0-0.776,0.247-0.929,0.629l-1.497,3.742
		C11.772,11.763,11.396,12,11,12z"/>
</g>
<g>
	<path class="st1" d="M25,9h-2c-1.654,0-3-1.346-3-3s1.346-3,3-3h2c1.654,0,3,1.346,3,3S26.654,9,25,9z M23,5c-0.551,0-1,0.448-1,1
		s0.449,1,1,1h2c0.551,0,1-0.448,1-1s-0.449-1-1-1H23z"/>
</g>
<g>
	<path class="st1" d="M19,19H6c-0.552,0-1-0.447-1-1v-3c0-0.553,0.448-1,1-1h13c0.552,0,1,0.447,1,1v3C20,18.553,19.552,19,19,19z
		 M7,17h11v-1H7V17z"/>
</g>
<g>
	<path class="st1" d="M8,23H6c-0.552,0-1-0.447-1-1s0.448-1,1-1h2c0.552,0,1,0.447,1,1S8.552,23,8,23z"/>
</g>
<g>
	<path class="st1" d="M14,23h-2c-0.552,0-1-0.447-1-1s0.448-1,1-1h2c0.552,0,1,0.447,1,1S14.552,23,14,23z"/>
</g>
</svg>
